<svg xmlns="http://www.w3.org/2000/svg" style="background: transparent; background-color: transparent;" xmlns:xlink="http://www.w3.org/1999/xlink" version="1.1" width="2101px" height="561px" viewBox="-0.5 -0.5 2101 561" content="&lt;mxfile&gt;&lt;diagram id=&quot;cdYwvKbcFpRJGzZBGnYM&quot; name=&quot;Page-1&quot;&gt;7V3/l6I2EP9r/PH2QQDBH1Xca/uufdvuvXftj4hZpYeEIq7av775CiFBVJZVe8vunQdDMpnEzHxmJgk3sKbr/ecsSFe/ogWMB8BY7AeWPwAAmBbA/xDKgVFcd8QIyyxaMJJZEp6jfyEnGpy6jRZwUymYIxTnUVolhihJYJhXaEGWoV212AuKq62mwRJqhOcwiHXqt2iRrxjVc4yS/hOMlivRsmnwJ+tAFOaEzSpYoJ1EsmYDa5ohlLOr9X4KYzJ4YlxYvccjTwvBMpjkNRXQ/G8yHrhEHIRwhfsNM2XI7N+CNe/mwDcGI3PgmwPPItcTW1zjzxGlOPwTGOABt2QIJl8PKWfyfNjkcP0cohRO0DZZBNlBFBqnaRyFQR6hhJdFL/kOy46fsmqsZBzM8QRiIoFhjDs2eUEJ6cYmP/DvZPjPFokHnzZ0xoxxAXOY7suH+GrJ/6Vc5iphEb3Wcs3hPv8UxNEyYWxj+JLXsXX48AFHcMRDT5lW28FUrW1MY73qVCSHSSUPNRbO8Y/JB6TZBIoJWUy0Ug6QkW8TkqImH3euqCa5362iHD6neJZhyg6bAUxb5euYF18Em1VRN8hCXhVPIMwqiuMpilGGCQlKMH2yyTP0HQriAFhD+sPblejsB9PpnJkE4fcllVPhx8fNp4NmTV5hluPRicecPEd5jtYFF5RhNVElwl2LkuVXhDvmGyWBdMngHXwK8hxmhKGHh87G1DXMg9kiynnHM5QHeTCnI0oqpTCLcBFI2smwogbJMoZPJXGSoC9cFwwh3VOwWLB2DdqxGO3GwsQRCreBUitwnwbJgt/gZrbZJnqFf0CmNawIlpHXIHKmKEqwALNXbFUE32C+QfE2h+PiyytKUovikLlnPBBNmBr0L5l0U0qso7k60SR3gkOVWEdznTqWZk3bKg3UEGtZ1rRtKELiP0KPZDPMzSuZaXAvkbh6fYYIf8fENBr86Scw4taUgyQQ8LIrIce0BSSuJLxxhpwYcNu+LLiXUIAvuFaLWw4OLYDC//aTbvinWDODKMHzVjyC4SrBWrTkHXr+/Qsx9DB7Lcv4cBNmUVpCAsGXsUMRx6BYwz59CX3YtVcgEb0AtIopiuHr4pGt8fFpgUm12Jh+zujnlH4+ahVZo94Dtp/Y+FDFp6D5KAk8o9dDSWAZRmVuBqU8CgFMqQm32mvaNV5sIslpSVXGnOfVILQW/C6CuSpm0amEmREphsGaIEgy36SiLWk6NSIalzNravHSITGbhoRzCQtUKgtasyH5PeI6yJO/Moh1A9YE3FYjcGOfk+poeIgjjOAZgcuNgO4H7Ma6ps0+Lcs+DeVz5gd8mQtC6RgUIHUUiGWsx8MDrDHwR4o7AXSYf6E/EpCHMGEIqXkKxsz1x76OvRpSdY8/XaNKRiBaAvIOUMZ0qyBjuzrIALsGY0xwZYyhdnVataLM1hXW1ZOMuVmxgaVdLR554hp/AontVDabF+HZE9qRh8ZkG5GuNELaSJYVSGadiWhLAo2q5h5IeGBI3Z5KMFBXvWwISP2XBuU0OhateKUwwCjAv8eYj4Qx9lkYs94vSQroIbQfdnA+IXEJCaW4JoF3RhcNDEzTG0/9Btw5XkN6AhRkaQ1WPSTVBj5WFZMs+1xMuk7cU0LCHzCmKZXNKkqr2uE1agdMFjRGJ6mGGIXfv66ipDrt5Sll6FPKNshvMStFEpLUxLwfo1jw0eazB8gvKRfPqQAi96FPR8xJiGBTVkGWy4S/t+v0mXcqyEJB4SWGmq7CxRKK8ijLV2iJkiCeldQJ3Ef5n6J1fP0XqYmnIbvz90UCA98cpBspRcJoCf7S/5RvGCfgiPuSF707yHcqt3CLI1SRqzo6wTdom4VQso3AwAO2hLnkkgODjEGjEtTN8YxOs9dq8rlujnN2T8SOyAqlOnmeoidMdl5NTi+rnKwTjFiPNUZU54pOvo9rOJNCdCVfUHg+M07XFFkE7YUHxXIBU8nXmkm+k6F5jaJ8o893kYilgyV5spOqn6vE+s7b/TCvrdPBQe7cnPgp9+yMFoM5+T2e8hau3XW9NvtdBrAzr23UiEtHAKiSsDeO+GyKR2V41qPr1AbkQ8t0pg1uUo3vmGL1Rwno0oe6iwzyu/lQQ6dqqYFX40MZdT6UatJv50OZZuNk7Z2oS5yooSnu3+5GXcmLGulelH1DL6rIeL3VizrJ6Jpe1FmK2Bzr94p4m2jGvZIemt5dhTOWqaQHRi310HFOMLphNKMsC8qufxEqCNf/RtHMRSKeufLahy99+NIUvmA73McvHzF+cf6P8Yvbu02duU1ud37Ttdymoe42CVfqJgHMUAk73Lbxi3eC0W38psnPn66zvP9zo180PrN9fTfbKSeqsvLuV/nMpK77mod36dY3seesX9z/oIv7ZvP6Zb+636/ut/Xs1NX9YrPynazuK4F47T4tttNWWb+T96DNqhZW34PmaQt5bSBpjBVrRU7LTLHQ8XFY+iEsuNEb7WajLR0gO31e54RhVsPn9rt4zzKV5QkgswxoztjEqxqo/vhJV8dPHHWrx51tDD4nAGeWrw/AWwbgIq5+87qF2UH8fVbILabenaxUuGoSy2gZcY9GJxjdbqVibFc9GWU7u9PCq/mMiGkDxi/Ba9AcassxtCnFwWJdo7K3vdhWX/W6SrlNyXUDx/e8N+/iKrxA6u1VqvdO2EdwwprPXvVOWO+Ene+EeeoK9Z05YUqsDCRjaglDXNhH+bCufmRXOawrn3WSU6mTFngysB47hJFCrEv7qcDIReesLjiL3OPMx8CZ5j1ZPc70ONMeZ5zRXeOMxz/fGTeeDjg6Ts6HDld7S4UOJsVLGQytJ60X9dodivYufClGjyofAVWcHlV6VOkIVdR3SwzPXum7oxRyv4frLlLIUtb4L/nZ+27hEsljOZ8s5uYtEsqesvPKMRVFOXsLl3oGReN0b2dQ+hP196KIbkUTzStpYs2R+l4Tb6OJzWeIe0286DSYZ71FF8FNdNG5L10sVkPF26TbLrO69glGN1xmbU4rVN8FoSkzzTJ0ciCsdh1VX/M9MzEjb3t7h11rH/A02A989stqfh1Af/bryrmDd3slJVDfXVG36nnDs19dW+axUqt4C2Tx0n2dD2vOqpp0xYzLKWNRspJZtntr3Fvjtta4eW9lb41/VGtce17jzk/iWs2bsvqQ9UjI2uUG3vpMVItjvZcHrJZZE7DecF+wfUylLg1Yh+q+YJXRveWOrP5NQt1lcd9yJL4LjW6hiKBGEW/4Tq//nyLi2/I/B2O1y/9izZr9Bw==&lt;/diagram&gt;&lt;/mxfile&gt;"><defs/><g><g><rect x="360" y="0" width="1410" height="560" rx="10" ry="10" fill="none" stroke="#666666" stroke-dasharray="8 4" pointer-events="none" style="stroke: light-dark(rgb(102, 102, 102), rgb(149, 149, 149));"/></g><g><g transform="translate(-0.5 -0.5)"><switch><foreignObject style="overflow: visible; text-align: left;" pointer-events="none" width="100%" height="100%" requiredFeatures="http://www.w3.org/TR/SVG11/feature#Extensibility"><div xmlns="http://www.w3.org/1999/xhtml" style="display: flex; align-items: unsafe flex-end; justify-content: unsafe flex-start; width: 1392px; height: 1px; padding-top: 549px; margin-left: 370px;"><div style="box-sizing: border-box; font-size: 0; text-align: left; color: #333333; "><div style="display: inline-block; font-size: 11px; font-family: &quot;Helvetica&quot;; color: light-dark(#333333, #c1c1c1); line-height: 1.2; pointer-events: all; white-space: normal; word-wrap: normal; "><font style="font-size: 16px"><b><div style="text-align: left">Будущее 2.0 </div></b></font><div style="text-align: left">[Software System]</div></div></div></div></foreignObject><text x="370" y="549" fill="#333333" font-family="&quot;Helvetica&quot;" font-size="11px">Будущее 2.0...</text></switch></g></g><g><path d="M 820 231.29 C 820 225.05 873.73 220 940 220 C 971.83 220 1002.35 221.19 1024.85 223.31 C 1047.36 225.42 1060 228.29 1060 231.29 L 1060 328.71 C 1060 334.95 1006.27 340 940 340 C 873.73 340 820 334.95 820 328.71 Z" fill="#23a2d9" stroke="#0e7dad" stroke-miterlimit="10" pointer-events="all" style="fill: light-dark(rgb(35, 162, 217), rgb(29, 138, 185)); stroke: light-dark(rgb(14, 125, 173), rgb(69, 164, 206));"/><path d="M 1060 231.29 C 1060 237.52 1006.27 242.57 940 242.57 C 873.73 242.57 820 237.52 820 231.29" fill="none" stroke="#0e7dad" stroke-miterlimit="10" pointer-events="all" style="stroke: light-dark(rgb(14, 125, 173), rgb(69, 164, 206));"/></g><g><g transform="translate(-0.5 -0.5)"><switch><foreignObject style="overflow: visible; text-align: left;" pointer-events="none" width="100%" height="100%" requiredFeatures="http://www.w3.org/TR/SVG11/feature#Extensibility"><div xmlns="http://www.w3.org/1999/xhtml" style="display: flex; align-items: unsafe center; justify-content: unsafe center; width: 238px; height: 1px; padding-top: 290px; margin-left: 821px;"><div style="box-sizing: border-box; font-size: 0; text-align: center; color: #ffffff; "><div style="display: inline-block; font-size: 12px; font-family: &quot;Helvetica&quot;; color: light-dark(#ffffff, #121212); line-height: 1.2; pointer-events: all; white-space: normal; word-wrap: normal; "><font style="font-size: 16px"><b>DWH</b></font><div>[Container: SQL Server]</div><br /><div><font style="font-size: 11px"><font color="#E6E6E6" style="color: light-dark(rgb(230, 230, 230), rgb(39, 39, 39));">Хранение всех данных компании.<br />Процедурная бизнес логика</font></font></div></div></div></div></foreignObject><text x="940" y="294" fill="#ffffff" font-family="&quot;Helvetica&quot;" font-size="12px" text-anchor="middle">DWH...</text></switch></g></g><g><path d="M 420 98 C 420 93.58 423.58 90 428 90 L 652 90 C 656.42 90 660 93.58 660 98 L 660 242 C 660 246.42 656.42 250 652 250 L 428 250 C 423.58 250 420 246.42 420 242 Z" fill="#118acd" stroke="#0e7dad" stroke-miterlimit="10" pointer-events="all" style="fill: light-dark(rgb(17, 138, 205), rgb(49, 154, 211)); stroke: light-dark(rgb(14, 125, 173), rgb(69, 164, 206));"/><path d="M 425 98 C 425 96.34 426.34 95 428 95 L 601 95 C 602.66 95 604 96.34 604 98 L 604 104 C 604 105.66 602.66 107 601 107 L 428 107 C 426.34 107 425 105.66 425 104 Z M 609 98 C 609 96.34 610.34 95 612 95 L 618 95 C 619.66 95 621 96.34 621 98 L 621 104 C 621 105.66 619.66 107 618 107 L 612 107 C 610.34 107 609 105.66 609 104 Z M 626 98 C 626 96.34 627.34 95 629 95 L 635 95 C 636.66 95 638 96.34 638 98 L 638 104 C 638 105.66 636.66 107 635 107 L 629 107 C 627.34 107 626 105.66 626 104 Z M 643 98 C 643 96.34 644.34 95 646 95 L 652 95 C 653.66 95 655 96.34 655 98 L 655 104 C 655 105.66 653.66 107 652 107 L 646 107 C 644.34 107 643 105.66 643 104 Z M 425 120 C 425 115.58 428.58 112 433 112 L 647 112 C 651.42 112 655 115.58 655 120 L 655 237 C 655 241.42 651.42 245 647 245 L 433 245 C 428.58 245 425 241.42 425 237 Z" fill="#23a2d9" stroke="none" pointer-events="all" style="fill: light-dark(rgb(35, 162, 217), rgb(29, 138, 185));"/></g><g><g transform="translate(-0.5 -0.5)"><switch><foreignObject style="overflow: visible; text-align: left;" pointer-events="none" width="100%" height="100%" requiredFeatures="http://www.w3.org/TR/SVG11/feature#Extensibility"><div xmlns="http://www.w3.org/1999/xhtml" style="display: flex; align-items: unsafe center; justify-content: unsafe center; width: 238px; height: 1px; padding-top: 170px; margin-left: 421px;"><div style="box-sizing: border-box; font-size: 0; text-align: center; color: #ffffff; "><div style="display: inline-block; font-size: 12px; font-family: &quot;Helvetica&quot;; color: light-dark(#ffffff, #121212); line-height: 1.2; pointer-events: all; white-space: normal; word-wrap: normal; "><font style="font-size: 16px"><b>Медицинская система</b></font><div>[Container: Power Builder]</div><br /><div><font style="font-size: 11px"><font color="#E6E6E6" style="color: light-dark(rgb(230, 230, 230), rgb(39, 39, 39));">Интерфейс взаимодействия с данными в DWH</font></font></div></div></div></div></foreignObject><text x="540" y="174" fill="#ffffff" font-family="&quot;Helvetica&quot;" font-size="12px" text-anchor="middle">Медицинская система...</text></switch></g></g><g><path d="M 660 170 Q 740 170 740 210 Q 740 250 803.88 250" fill="none" stroke="#828282" stroke-miterlimit="10" pointer-events="stroke" style="stroke: light-dark(rgb(130, 130, 130), rgb(125, 125, 125));"/><path d="M 818.88 250 L 803.88 255 L 803.88 245 Z" fill="#828282" stroke="#828282" stroke-miterlimit="10" pointer-events="all" style="fill: light-dark(rgb(130, 130, 130), rgb(125, 125, 125)); stroke: light-dark(rgb(130, 130, 130), rgb(125, 125, 125));"/></g><g><ellipse cx="100" cy="70.5" rx="40.5" ry="40.5" fill="#083f75" stroke="#06315c" pointer-events="all" style="fill: light-dark(rgb(8, 63, 117), rgb(149, 196, 242)); stroke: light-dark(rgb(6, 49, 92), rgb(168, 205, 242));"/><path d="M 0 135.3 C 0 112.93 18.13 94.8 40.5 94.8 L 159.5 94.8 C 181.87 94.8 200 112.93 200 135.3 L 200 169.5 C 200 191.87 181.87 210 159.5 210 L 40.5 210 C 18.13 210 0 191.87 0 169.5 Z" fill="#083f75" stroke="#06315c" stroke-miterlimit="10" pointer-events="all" style="fill: light-dark(rgb(8, 63, 117), rgb(149, 196, 242)); stroke: light-dark(rgb(6, 49, 92), rgb(168, 205, 242));"/><ellipse cx="100" cy="70.5" rx="40.5" ry="40.5" fill="#083f75" stroke="#06315c" pointer-events="all" style="fill: light-dark(rgb(8, 63, 117), rgb(149, 196, 242)); stroke: light-dark(rgb(6, 49, 92), rgb(168, 205, 242));"/></g><g><g transform="translate(-0.5 -0.5)"><switch><foreignObject style="overflow: visible; text-align: left;" pointer-events="none" width="100%" height="100%" requiredFeatures="http://www.w3.org/TR/SVG11/feature#Extensibility"><div xmlns="http://www.w3.org/1999/xhtml" style="display: flex; align-items: unsafe center; justify-content: unsafe center; width: 198px; height: 1px; padding-top: 153px; margin-left: 1px;"><div style="box-sizing: border-box; font-size: 0; text-align: center; color: #ffffff; "><div style="display: inline-block; font-size: 11px; font-family: &quot;Helvetica&quot;; color: light-dark(#ffffff, #121212); line-height: 1.2; pointer-events: all; white-space: normal; word-wrap: normal; "><font style="font-size: 18px"><font color="#ffffff" style="color: light-dark(rgb(255, 255, 255), rgb(18, 18, 18));">Оператор</font><div><font color="#ababab" style="color: light-dark(rgb(171, 171, 171), rgb(90, 90, 90));">[Пользователь]</font></div><font color="#ababab" style="color: light-dark(rgb(171, 171, 171), rgb(90, 90, 90));"><br /><div><font style="font-size: 14px"><font color="#ffffff" style="color: light-dark(rgb(255, 255, 255), rgb(18, 18, 18));">Оператор в клинике</font></font></div></font></font></div></div></div></foreignObject><text x="100" y="156" fill="#ffffff" font-family="&quot;Helvetica&quot;" font-size="11px" text-anchor="middle">Оператор[Пользователь]...</text></switch></g></g><g><path d="M 200 139.98 Q 310 140 310 155 Q 310 170 403.88 170" fill="none" stroke="#828282" stroke-miterlimit="10" pointer-events="stroke" style="stroke: light-dark(rgb(130, 130, 130), rgb(125, 125, 125));"/><path d="M 418.88 170 L 403.88 175 L 403.88 165 Z" fill="#828282" stroke="#828282" stroke-miterlimit="10" pointer-events="all" style="fill: light-dark(rgb(130, 130, 130), rgb(125, 125, 125)); stroke: light-dark(rgb(130, 130, 130), rgb(125, 125, 125));"/></g><g><path d="M 660 390 Q 740 390 740 350 Q 740 310 803.88 310" fill="none" stroke="#828282" stroke-miterlimit="10" pointer-events="stroke" style="stroke: light-dark(rgb(130, 130, 130), rgb(125, 125, 125));"/><path d="M 818.88 310 L 803.88 315 L 803.88 305 Z" fill="#828282" stroke="#828282" stroke-miterlimit="10" pointer-events="all" style="fill: light-dark(rgb(130, 130, 130), rgb(125, 125, 125)); stroke: light-dark(rgb(130, 130, 130), rgb(125, 125, 125));"/></g><g><ellipse cx="100" cy="370.5" rx="40.5" ry="40.5" fill="#083f75" stroke="#06315c" pointer-events="all" style="fill: light-dark(rgb(8, 63, 117), rgb(149, 196, 242)); stroke: light-dark(rgb(6, 49, 92), rgb(168, 205, 242));"/><path d="M 0 435.3 C 0 412.93 18.13 394.8 40.5 394.8 L 159.5 394.8 C 181.87 394.8 200 412.93 200 435.3 L 200 469.5 C 200 491.87 181.87 510 159.5 510 L 40.5 510 C 18.13 510 0 491.87 0 469.5 Z" fill="#083f75" stroke="#06315c" stroke-miterlimit="10" pointer-events="all" style="fill: light-dark(rgb(8, 63, 117), rgb(149, 196, 242)); stroke: light-dark(rgb(6, 49, 92), rgb(168, 205, 242));"/><ellipse cx="100" cy="370.5" rx="40.5" ry="40.5" fill="#083f75" stroke="#06315c" pointer-events="all" style="fill: light-dark(rgb(8, 63, 117), rgb(149, 196, 242)); stroke: light-dark(rgb(6, 49, 92), rgb(168, 205, 242));"/></g><g><g transform="translate(-0.5 -0.5)"><switch><foreignObject style="overflow: visible; text-align: left;" pointer-events="none" width="100%" height="100%" requiredFeatures="http://www.w3.org/TR/SVG11/feature#Extensibility"><div xmlns="http://www.w3.org/1999/xhtml" style="display: flex; align-items: unsafe center; justify-content: unsafe center; width: 198px; height: 1px; padding-top: 453px; margin-left: 1px;"><div style="box-sizing: border-box; font-size: 0; text-align: center; color: #ffffff; "><div style="display: inline-block; font-size: 11px; font-family: &quot;Helvetica&quot;; color: light-dark(#ffffff, #121212); line-height: 1.2; pointer-events: all; white-space: normal; word-wrap: normal; "><font style="font-size: 18px"><font color="#ffffff" style="color: light-dark(rgb(255, 255, 255), rgb(18, 18, 18));">Аналитик</font><div><font color="#ababab" style="color: light-dark(rgb(171, 171, 171), rgb(90, 90, 90));">[Пользователь]</font></div><font color="#ababab" style="color: light-dark(rgb(171, 171, 171), rgb(90, 90, 90));"><br /><div><font style="font-size: 14px"><font color="#ffffff" style="color: light-dark(rgb(255, 255, 255), rgb(18, 18, 18));">Аналитик данных</font></font></div></font></font></div></div></div></foreignObject><text x="100" y="456" fill="#ffffff" font-family="&quot;Helvetica&quot;" font-size="11px" text-anchor="middle">Аналитик[Пользователь]...</text></switch></g></g><g><path d="M 200 465 Q 310 465 310 427.5 Q 310 390 403.88 390" fill="none" stroke="#828282" stroke-miterlimit="10" pointer-events="stroke" style="stroke: light-dark(rgb(130, 130, 130), rgb(125, 125, 125));"/><path d="M 418.88 390 L 403.88 395 L 403.88 385 Z" fill="#828282" stroke="#828282" stroke-miterlimit="10" pointer-events="all" style="fill: light-dark(rgb(130, 130, 130), rgb(125, 125, 125)); stroke: light-dark(rgb(130, 130, 130), rgb(125, 125, 125));"/></g><g><path d="M 420 318 C 420 313.58 423.58 310 428 310 L 652 310 C 656.42 310 660 313.58 660 318 L 660 462 C 660 466.42 656.42 470 652 470 L 428 470 C 423.58 470 420 466.42 420 462 Z" fill="#118acd" stroke="#0e7dad" stroke-miterlimit="10" pointer-events="all" style="fill: light-dark(rgb(17, 138, 205), rgb(49, 154, 211)); stroke: light-dark(rgb(14, 125, 173), rgb(69, 164, 206));"/><path d="M 425 318 C 425 316.34 426.34 315 428 315 L 601 315 C 602.66 315 604 316.34 604 318 L 604 324 C 604 325.66 602.66 327 601 327 L 428 327 C 426.34 327 425 325.66 425 324 Z M 609 318 C 609 316.34 610.34 315 612 315 L 618 315 C 619.66 315 621 316.34 621 318 L 621 324 C 621 325.66 619.66 327 618 327 L 612 327 C 610.34 327 609 325.66 609 324 Z M 626 318 C 626 316.34 627.34 315 629 315 L 635 315 C 636.66 315 638 316.34 638 318 L 638 324 C 638 325.66 636.66 327 635 327 L 629 327 C 627.34 327 626 325.66 626 324 Z M 643 318 C 643 316.34 644.34 315 646 315 L 652 315 C 653.66 315 655 316.34 655 318 L 655 324 C 655 325.66 653.66 327 652 327 L 646 327 C 644.34 327 643 325.66 643 324 Z M 425 340 C 425 335.58 428.58 332 433 332 L 647 332 C 651.42 332 655 335.58 655 340 L 655 457 C 655 461.42 651.42 465 647 465 L 433 465 C 428.58 465 425 461.42 425 457 Z" fill="#23a2d9" stroke="none" pointer-events="all" style="fill: light-dark(rgb(35, 162, 217), rgb(29, 138, 185));"/></g><g><g transform="translate(-0.5 -0.5)"><switch><foreignObject style="overflow: visible; text-align: left;" pointer-events="none" width="100%" height="100%" requiredFeatures="http://www.w3.org/TR/SVG11/feature#Extensibility"><div xmlns="http://www.w3.org/1999/xhtml" style="display: flex; align-items: unsafe center; justify-content: unsafe center; width: 238px; height: 1px; padding-top: 390px; margin-left: 421px;"><div style="box-sizing: border-box; font-size: 0; text-align: center; color: #ffffff; "><div style="display: inline-block; font-size: 12px; font-family: &quot;Helvetica&quot;; color: light-dark(#ffffff, #121212); line-height: 1.2; pointer-events: all; white-space: normal; word-wrap: normal; "><font style="font-size: 16px"><b>BI-система</b></font><div>[Container: Power BI]</div><br /><div><font style="font-size: 11px"><font color="#E6E6E6" style="color: light-dark(rgb(230, 230, 230), rgb(39, 39, 39));">Система аналитики на основе данных из DWH</font></font></div></div></div></div></foreignObject><text x="540" y="394" fill="#ffffff" font-family="&quot;Helvetica&quot;" font-size="12px" text-anchor="middle">BI-система...</text></switch></g></g><g><rect x="1180" y="220" width="240" height="120" rx="12" ry="12" fill="#23a2d9" stroke="#0e7dad" pointer-events="all" style="fill: light-dark(rgb(35, 162, 217), rgb(29, 138, 185)); stroke: light-dark(rgb(14, 125, 173), rgb(69, 164, 206));"/></g><g><g transform="translate(-0.5 -0.5)"><switch><foreignObject style="overflow: visible; text-align: left;" pointer-events="none" width="100%" height="100%" requiredFeatures="http://www.w3.org/TR/SVG11/feature#Extensibility"><div xmlns="http://www.w3.org/1999/xhtml" style="display: flex; align-items: unsafe center; justify-content: unsafe center; width: 238px; height: 1px; padding-top: 280px; margin-left: 1181px;"><div style="box-sizing: border-box; font-size: 0; text-align: center; color: #ffffff; "><div style="display: inline-block; font-size: 11px; font-family: &quot;Helvetica&quot;; color: light-dark(#ffffff, #121212); line-height: 1.2; pointer-events: all; white-space: normal; word-wrap: normal; "><font style="font-size: 16px"><b>Интеграционная шина</b></font><div>[Container: Apache Camel]</div><br /><div><font style="font-size: 11px"><font color="#E6E6E6" style="color: light-dark(rgb(230, 230, 230), rgb(39, 39, 39));"></font></font></div></div></div></div></foreignObject><text x="1300" y="283" fill="#ffffff" font-family="&quot;Helvetica&quot;" font-size="11px" text-anchor="middle">Интеграционная шина...</text></switch></g></g><g><path d="M 1180 280 L 1076.12 280" fill="none" stroke="#828282" stroke-miterlimit="10" pointer-events="stroke" style="stroke: light-dark(rgb(130, 130, 130), rgb(125, 125, 125));"/><path d="M 1061.12 280 L 1076.12 275 L 1076.12 285 Z" fill="#828282" stroke="#828282" stroke-miterlimit="10" pointer-events="all" style="fill: light-dark(rgb(130, 130, 130), rgb(125, 125, 125)); stroke: light-dark(rgb(130, 130, 130), rgb(125, 125, 125));"/></g><g><rect x="1500" y="120" width="240" height="120" rx="12" ry="12" fill="#23a2d9" stroke="#0e7dad" pointer-events="all" style="fill: light-dark(rgb(35, 162, 217), rgb(29, 138, 185)); stroke: light-dark(rgb(14, 125, 173), rgb(69, 164, 206));"/></g><g><g transform="translate(-0.5 -0.5)"><switch><foreignObject style="overflow: visible; text-align: left;" pointer-events="none" width="100%" height="100%" requiredFeatures="http://www.w3.org/TR/SVG11/feature#Extensibility"><div xmlns="http://www.w3.org/1999/xhtml" style="display: flex; align-items: unsafe center; justify-content: unsafe center; width: 238px; height: 1px; padding-top: 180px; margin-left: 1501px;"><div style="box-sizing: border-box; font-size: 0; text-align: center; color: #ffffff; "><div style="display: inline-block; font-size: 11px; font-family: &quot;Helvetica&quot;; color: light-dark(#ffffff, #121212); line-height: 1.2; pointer-events: all; white-space: normal; word-wrap: normal; "><font style="font-size: 16px"><b>Финтех</b></font><div>[Container: Go, Java]</div><br /><div><font style="font-size: 11px"><font color="#E6E6E6" style="color: light-dark(rgb(230, 230, 230), rgb(39, 39, 39));">Работа с финансовыми операциями</font></font></div></div></div></div></foreignObject><text x="1620" y="183" fill="#ffffff" font-family="&quot;Helvetica&quot;" font-size="11px" text-anchor="middle">Финтех[Container: Go, Java]...</text></switch></g></g><g><rect x="1500" y="340" width="240" height="120" rx="12" ry="12" fill="#23a2d9" stroke="#0e7dad" pointer-events="all" style="fill: light-dark(rgb(35, 162, 217), rgb(29, 138, 185)); stroke: light-dark(rgb(14, 125, 173), rgb(69, 164, 206));"/></g><g><g transform="translate(-0.5 -0.5)"><switch><foreignObject style="overflow: visible; text-align: left;" pointer-events="none" width="100%" height="100%" requiredFeatures="http://www.w3.org/TR/SVG11/feature#Extensibility"><div xmlns="http://www.w3.org/1999/xhtml" style="display: flex; align-items: unsafe center; justify-content: unsafe center; width: 238px; height: 1px; padding-top: 400px; margin-left: 1501px;"><div style="box-sizing: border-box; font-size: 0; text-align: center; color: #ffffff; "><div style="display: inline-block; font-size: 11px; font-family: &quot;Helvetica&quot;; color: light-dark(#ffffff, #121212); line-height: 1.2; pointer-events: all; white-space: normal; word-wrap: normal; "><font style="font-size: 16px"><b>Внутренние сервисы</b></font><div>[Container: ?]</div><br /><div><font style="font-size: 11px"><font color="#E6E6E6" style="color: light-dark(rgb(230, 230, 230), rgb(39, 39, 39));">Работа с внутренними данными компании</font></font></div></div></div></div></foreignObject><text x="1620" y="403" fill="#ffffff" font-family="&quot;Helvetica&quot;" font-size="11px" text-anchor="middle">Внутренние сервисы...</text></switch></g></g><g><rect x="820" y="410" width="240" height="120" rx="12" ry="12" fill="#23a2d9" stroke="#0e7dad" pointer-events="all" style="fill: light-dark(rgb(35, 162, 217), rgb(29, 138, 185)); stroke: light-dark(rgb(14, 125, 173), rgb(69, 164, 206));"/></g><g><g transform="translate(-0.5 -0.5)"><switch><foreignObject style="overflow: visible; text-align: left;" pointer-events="none" width="100%" height="100%" requiredFeatures="http://www.w3.org/TR/SVG11/feature#Extensibility"><div xmlns="http://www.w3.org/1999/xhtml" style="display: flex; align-items: unsafe center; justify-content: unsafe center; width: 238px; height: 1px; padding-top: 470px; margin-left: 821px;"><div style="box-sizing: border-box; font-size: 0; text-align: center; color: #ffffff; "><div style="display: inline-block; font-size: 11px; font-family: &quot;Helvetica&quot;; color: light-dark(#ffffff, #121212); line-height: 1.2; pointer-events: all; white-space: normal; word-wrap: normal; "><font style="font-size: 16px"><b>ИИ сервисы</b></font><div>[Container: Python]</div><br /><div><font style="font-size: 11px"><font color="#E6E6E6" style="color: light-dark(rgb(230, 230, 230), rgb(39, 39, 39));">Разработка ИИ на основе медицинских данных</font></font></div></div></div></div></foreignObject><text x="940" y="473" fill="#ffffff" font-family="&quot;Helvetica&quot;" font-size="11px" text-anchor="middle">ИИ сервисы...</text></switch></g></g><g><path d="M 1500 180 Q 1300 180 1300 203.88" fill="none" stroke="#828282" stroke-miterlimit="10" pointer-events="stroke" style="stroke: light-dark(rgb(130, 130, 130), rgb(125, 125, 125));"/><path d="M 1300 218.88 L 1295 203.88 L 1305 203.88 Z" fill="#828282" stroke="#828282" stroke-miterlimit="10" pointer-events="all" style="fill: light-dark(rgb(130, 130, 130), rgb(125, 125, 125)); stroke: light-dark(rgb(130, 130, 130), rgb(125, 125, 125));"/></g><g><path d="M 1500 400 Q 1360 400 1360 356.12" fill="none" stroke="#828282" stroke-miterlimit="10" pointer-events="stroke" style="stroke: light-dark(rgb(130, 130, 130), rgb(125, 125, 125));"/><path d="M 1360 341.12 L 1365 356.12 L 1355 356.12 Z" fill="#828282" stroke="#828282" stroke-miterlimit="10" pointer-events="all" style="fill: light-dark(rgb(130, 130, 130), rgb(125, 125, 125)); stroke: light-dark(rgb(130, 130, 130), rgb(125, 125, 125));"/></g><g><path d="M 1060 479.96 Q 1240 480 1240 356.12" fill="none" stroke="#828282" stroke-miterlimit="10" pointer-events="stroke" style="stroke: light-dark(rgb(130, 130, 130), rgb(125, 125, 125));"/><path d="M 1240 341.12 L 1245 356.12 L 1235 356.12 Z" fill="#828282" stroke="#828282" stroke-miterlimit="10" pointer-events="all" style="fill: light-dark(rgb(130, 130, 130), rgb(125, 125, 125)); stroke: light-dark(rgb(130, 130, 130), rgb(125, 125, 125));"/></g><g><ellipse cx="2000" cy="60.5" rx="40.5" ry="40.5" fill="#083f75" stroke="#06315c" pointer-events="all" style="fill: light-dark(rgb(8, 63, 117), rgb(149, 196, 242)); stroke: light-dark(rgb(6, 49, 92), rgb(168, 205, 242));"/><path d="M 1900 125.3 C 1900 102.93 1918.13 84.8 1940.5 84.8 L 2059.5 84.8 C 2081.87 84.8 2100 102.93 2100 125.3 L 2100 159.5 C 2100 181.87 2081.87 200 2059.5 200 L 1940.5 200 C 1918.13 200 1900 181.87 1900 159.5 Z" fill="#083f75" stroke="#06315c" stroke-miterlimit="10" pointer-events="all" style="fill: light-dark(rgb(8, 63, 117), rgb(149, 196, 242)); stroke: light-dark(rgb(6, 49, 92), rgb(168, 205, 242));"/><ellipse cx="2000" cy="60.5" rx="40.5" ry="40.5" fill="#083f75" stroke="#06315c" pointer-events="all" style="fill: light-dark(rgb(8, 63, 117), rgb(149, 196, 242)); stroke: light-dark(rgb(6, 49, 92), rgb(168, 205, 242));"/></g><g><g transform="translate(-0.5 -0.5)"><switch><foreignObject style="overflow: visible; text-align: left;" pointer-events="none" width="100%" height="100%" requiredFeatures="http://www.w3.org/TR/SVG11/feature#Extensibility"><div xmlns="http://www.w3.org/1999/xhtml" style="display: flex; align-items: unsafe center; justify-content: unsafe center; width: 198px; height: 1px; padding-top: 143px; margin-left: 1901px;"><div style="box-sizing: border-box; font-size: 0; text-align: center; color: #ffffff; "><div style="display: inline-block; font-size: 11px; font-family: &quot;Helvetica&quot;; color: light-dark(#ffffff, #121212); line-height: 1.2; pointer-events: all; white-space: normal; word-wrap: normal; "><font style="font-size: 18px"><font color="#ffffff" style="color: light-dark(rgb(255, 255, 255), rgb(18, 18, 18));">Работник</font><div><font color="#ababab" style="color: light-dark(rgb(171, 171, 171), rgb(90, 90, 90));">[Пользователь финтех сервиса]</font></div><div><font color="#ababab" style="color: light-dark(rgb(171, 171, 171), rgb(90, 90, 90));"><font style="font-size: 14px"><font color="#ffffff" style="color: light-dark(rgb(255, 255, 255), rgb(18, 18, 18));"></font></font></font></div></font></div></div></div></foreignObject><text x="2000" y="146" fill="#ffffff" font-family="&quot;Helvetica&quot;" font-size="11px" text-anchor="middle">Работник[Пользователь финтех сервиса]...</text></switch></g></g><g><ellipse cx="2000" cy="350.5" rx="40.5" ry="40.5" fill="#083f75" stroke="#06315c" pointer-events="all" style="fill: light-dark(rgb(8, 63, 117), rgb(149, 196, 242)); stroke: light-dark(rgb(6, 49, 92), rgb(168, 205, 242));"/><path d="M 1900 415.3 C 1900 392.93 1918.13 374.8 1940.5 374.8 L 2059.5 374.8 C 2081.87 374.8 2100 392.93 2100 415.3 L 2100 449.5 C 2100 471.87 2081.87 490 2059.5 490 L 1940.5 490 C 1918.13 490 1900 471.87 1900 449.5 Z" fill="#083f75" stroke="#06315c" stroke-miterlimit="10" pointer-events="all" style="fill: light-dark(rgb(8, 63, 117), rgb(149, 196, 242)); stroke: light-dark(rgb(6, 49, 92), rgb(168, 205, 242));"/><ellipse cx="2000" cy="350.5" rx="40.5" ry="40.5" fill="#083f75" stroke="#06315c" pointer-events="all" style="fill: light-dark(rgb(8, 63, 117), rgb(149, 196, 242)); stroke: light-dark(rgb(6, 49, 92), rgb(168, 205, 242));"/></g><g><g transform="translate(-0.5 -0.5)"><switch><foreignObject style="overflow: visible; text-align: left;" pointer-events="none" width="100%" height="100%" requiredFeatures="http://www.w3.org/TR/SVG11/feature#Extensibility"><div xmlns="http://www.w3.org/1999/xhtml" style="display: flex; align-items: unsafe center; justify-content: unsafe center; width: 198px; height: 1px; padding-top: 433px; margin-left: 1901px;"><div style="box-sizing: border-box; font-size: 0; text-align: center; color: #ffffff; "><div style="display: inline-block; font-size: 11px; font-family: &quot;Helvetica&quot;; color: light-dark(#ffffff, #121212); line-height: 1.2; pointer-events: all; white-space: normal; word-wrap: normal; "><font style="font-size: 18px"><font color="#ffffff" style="color: light-dark(rgb(255, 255, 255), rgb(18, 18, 18));">Работник</font><div><font color="#ababab" style="color: light-dark(rgb(171, 171, 171), rgb(90, 90, 90));">[Сотрудник головного офиса]</font></div><div><font color="#ababab" style="color: light-dark(rgb(171, 171, 171), rgb(90, 90, 90));"><font style="font-size: 14px"><font color="#ffffff" style="color: light-dark(rgb(255, 255, 255), rgb(18, 18, 18));"></font></font></font></div></font></div></div></div></foreignObject><text x="2000" y="436" fill="#ffffff" font-family="&quot;Helvetica&quot;" font-size="11px" text-anchor="middle">Работник[Сотрудник головного офиса]...</text></switch></g></g><g><path d="M 1900 155 Q 1820 155 1820 167.5 Q 1820 180 1756.12 180" fill="none" stroke="#828282" stroke-miterlimit="10" pointer-events="stroke" style="stroke: light-dark(rgb(130, 130, 130), rgb(125, 125, 125));"/><path d="M 1741.12 180 L 1756.12 175 L 1756.12 185 Z" fill="#828282" stroke="#828282" stroke-miterlimit="10" pointer-events="all" style="fill: light-dark(rgb(130, 130, 130), rgb(125, 125, 125)); stroke: light-dark(rgb(130, 130, 130), rgb(125, 125, 125));"/></g><g><path d="M 1900 445 Q 1820 445 1820 422.5 Q 1820 400 1756.12 400" fill="none" stroke="#828282" stroke-miterlimit="10" pointer-events="stroke" style="stroke: light-dark(rgb(130, 130, 130), rgb(125, 125, 125));"/><path d="M 1741.12 400 L 1756.12 395 L 1756.12 405 Z" fill="#828282" stroke="#828282" stroke-miterlimit="10" pointer-events="all" style="fill: light-dark(rgb(130, 130, 130), rgb(125, 125, 125)); stroke: light-dark(rgb(130, 130, 130), rgb(125, 125, 125));"/></g></g><switch><g requiredFeatures="http://www.w3.org/TR/SVG11/feature#Extensibility"/><a transform="translate(0,-5)" xlink:href="https://www.drawio.com/doc/faq/svg-export-text-problems" target="_blank"><text text-anchor="middle" font-size="10px" x="50%" y="100%">Text is not SVG - cannot display</text></a></switch></svg>